<svg width="16" height="9" viewBox="0 0 16 9" fill="none" xmlns="http://www.w3.org/2000/svg">
<path d="M11.9712 0.169552C11.8763 0.257722 11.8017 0.373021 11.8017 0.427279C11.8017 0.542578 12.0187 0.746047 12.134 0.746047C12.3171 0.746047 12.602 0.956298 12.6834 1.15977C12.7715 1.36323 12.7648 1.38358 12.5613 1.5667C12.4392 1.67522 12.3171 1.76339 12.29 1.76339C12.2629 1.76339 12.2086 1.66166 12.1747 1.53957C12.1137 1.33611 12.0865 1.32254 11.8356 1.33611C11.388 1.35645 11.0353 1.50566 10.9335 1.71591L10.8386 1.9126L10.7097 1.70913C10.5266 1.40393 10.3503 1.30898 9.48891 1.09194C7.71196 0.630748 7.44066 0.651095 6.73531 1.30898C6.49793 1.53279 6.21985 1.85156 6.1249 2.01433C5.92143 2.36023 5.96213 2.36023 4.64636 2.17033C3.34416 1.98721 3.41877 2.01433 3.22208 1.62774C3.12713 1.44462 2.97792 1.24794 2.89653 1.1869C2.74732 1.09194 0.977146 0.81387 0.509168 0.81387C0.278571 0.81387 0.176836 0.935951 0.244659 1.11229C0.265006 1.15977 0.787242 1.5667 1.41121 2.00755C2.59133 2.85534 2.82871 3.01133 3.6765 3.52678C4.1716 3.83199 4.19195 3.85233 4.07665 3.96085C3.98848 4.04224 3.91388 4.0558 3.79179 4.01511C3.27634 3.8252 2.26578 3.87946 1.90632 4.11684C1.74354 4.21858 1.74354 4.23214 1.86563 4.27284C1.96736 4.30675 1.9131 4.34744 1.61468 4.43561C0.909323 4.63908 0.298917 5.24948 0.0954488 5.94806C-0.230101 7.06714 0.298917 8.24725 1.35017 8.74236C1.66894 8.89157 1.82493 8.9187 2.30647 8.9187C2.7948 8.9187 2.93723 8.89157 3.25599 8.73558C3.87996 8.43038 4.36151 7.86745 4.51072 7.27061C4.61923 6.84332 4.78201 6.82297 5.17538 7.18244C5.33816 7.33165 5.55519 7.48764 5.65692 7.52833C5.90109 7.6165 10.7436 7.62328 10.92 7.52833C11.0014 7.48764 11.076 7.32486 11.1234 7.07392C11.2116 6.66698 11.3201 6.37534 11.388 6.37534C11.4083 6.37534 11.4354 6.55168 11.4354 6.76872C11.449 7.56224 12.0323 8.41681 12.7987 8.76271C13.0428 8.87123 13.2666 8.91192 13.7007 8.91192C14.1958 8.9187 14.3315 8.89157 14.6841 8.7288C15.2064 8.48463 15.6811 7.98275 15.871 7.47407C15.9931 7.15531 16.0135 6.98575 15.9931 6.51099C15.9592 5.81241 15.7693 5.39869 15.2946 4.95785C15.0504 4.73403 14.9961 4.64586 15.064 4.60517C15.281 4.46274 14.2433 3.93372 13.7482 3.93372C13.5583 3.93372 13.66 3.85912 14.1077 3.66243C14.3111 3.57426 14.5349 3.45218 14.6028 3.39792C14.9826 3.07915 14.3315 1.83121 13.2056 0.732482C12.7105 0.244158 12.3782 -4.74602e-06 12.2222 -4.74602e-06C12.1747 -4.74602e-06 12.0594 0.0746004 11.9712 0.169552ZM12.6155 0.57649C12.6969 0.678224 12.6766 0.671442 12.4596 0.569707C12.3239 0.508667 12.229 0.427279 12.2493 0.393368C12.29 0.325545 12.4935 0.427279 12.6155 0.57649ZM13.1988 1.09873C13.3887 1.29541 13.6532 1.59383 13.7889 1.76339C14.0534 2.09572 14.4468 2.87568 14.4468 3.06559C14.4468 3.14019 14.3043 3.26906 14.0805 3.39114C13.8838 3.50644 13.66 3.66243 13.5922 3.73703C13.4633 3.87946 13.4701 3.87946 13.6532 4.04224C13.755 4.13041 13.9517 4.23214 14.0941 4.27284C14.4061 4.35422 14.7859 4.58482 14.7859 4.68655C14.7859 4.73403 14.9215 4.91715 15.0979 5.10027C15.5319 5.56825 15.7354 6.02945 15.7354 6.58559C15.7354 7.23669 15.5794 7.63007 15.1318 8.07092C14.5621 8.63385 13.8771 8.81018 13.1174 8.57959C12.4053 8.36934 11.7949 7.64363 11.6999 6.88402C11.6389 6.44317 11.51 6.2397 11.3201 6.28717C11.1506 6.33465 10.9335 6.6602 10.8793 6.97219C10.8522 7.09427 10.7775 7.22313 10.7097 7.26382C10.6216 7.30452 9.71273 7.32486 8.1528 7.3113L5.73153 7.29095L5.37207 6.99931C4.78201 6.53812 4.46324 6.62629 4.2123 7.33165C3.81892 8.38968 2.64559 8.93905 1.60112 8.54568C1.13992 8.36934 0.651596 7.92171 0.441345 7.49442C0.36674 7.33165 0.298917 7.03323 0.285353 6.74837C0.237877 5.84633 0.665161 5.15453 1.54008 4.74081C1.77746 4.62551 2.02162 4.48309 2.08944 4.40848C2.29969 4.18467 2.72698 4.11684 3.39842 4.20501C3.941 4.27962 4.00883 4.27284 4.16482 4.15754C4.54463 3.88625 4.35472 3.64887 3.22208 2.92994C2.84906 2.69256 2.40821 2.40092 2.23865 2.28563C0.773677 1.24794 0.529515 1.03768 0.902541 1.11229C0.983928 1.13264 1.23487 1.16655 1.45869 1.1869C1.6825 1.20724 2.05553 1.2615 2.29291 1.30219C2.70663 1.37002 2.72019 1.38358 2.99148 1.76339C3.1407 1.97364 3.3306 2.18389 3.41199 2.22459C3.61546 2.32632 5.67727 2.59761 5.86717 2.55013C6.03673 2.50944 6.13168 2.41449 6.63357 1.7973C6.83704 1.54636 7.10155 1.31576 7.31858 1.19368C7.74587 0.96308 7.90186 0.976644 9.22441 1.29541C10.079 1.50566 10.2621 1.58705 10.5809 1.87869C10.7911 2.07537 10.825 2.07537 11.1302 1.86512C11.2659 1.77017 11.4897 1.66844 11.6253 1.64809C11.8356 1.61418 11.9034 1.64131 12.0662 1.79052C12.3036 2.01433 12.5342 1.98042 12.7851 1.682C12.9818 1.4514 13.0021 1.15298 12.8461 0.915604C12.663 0.630748 12.8394 0.7257 13.1988 1.09873Z" fill="#535353"/>
<path d="M1.89901 4.98163C1.52599 5.07658 1.45138 5.11728 1.13262 5.40213C0.271266 6.17531 0.508646 7.61994 1.57347 8.14896C2.76715 8.7458 4.19143 7.68098 3.96761 6.35844C3.9337 6.17531 3.86588 6.04645 3.75736 5.97863C3.60815 5.87689 3.58102 5.87689 3.37755 5.99897C3.11983 6.14818 2.98418 6.372 2.98418 6.67042C2.98418 6.81285 2.91636 6.95528 2.78749 7.0977C2.62472 7.26726 2.53655 7.30796 2.30595 7.30796C1.43104 7.30796 1.39034 6.06001 2.25848 5.91759C2.61794 5.85655 2.81462 5.73447 2.95027 5.48352C3.03844 5.3004 3.03844 5.27327 2.92992 5.13762C2.76037 4.93416 2.33986 4.86633 1.89901 4.98163ZM2.84175 5.24614C2.8621 5.26649 2.79428 5.36144 2.69254 5.45639C2.56368 5.59204 2.4416 5.63951 2.23813 5.6463C1.75659 5.65986 1.33609 6.09393 1.33609 6.57547C1.33609 7.14518 1.73624 7.57925 2.25848 7.57925C2.82819 7.57925 3.25547 7.17909 3.25547 6.65007C3.25547 6.45339 3.29617 6.33809 3.43181 6.22279C3.64884 6.01254 3.73023 6.11427 3.73023 6.61616C3.73023 7.66742 2.60437 8.37956 1.68198 7.91158C1.1394 7.63351 0.87489 7.19944 0.87489 6.58903C0.87489 5.92437 1.26826 5.42248 1.96684 5.19866C2.12283 5.15119 2.78071 5.1851 2.84175 5.24614Z" fill="#535353"/>
<path d="M13.3747 5.10365C13.1441 5.3885 13.334 5.74796 13.7884 5.89717C14.08 5.99213 14.3649 6.26342 14.4124 6.5008C14.4598 6.71783 14.3106 7.05016 14.0936 7.19937C13.7884 7.41641 13.2594 7.27398 13.1034 6.93486C12.9881 6.6907 13.0017 6.58897 13.1712 6.10742L13.3272 5.68692L13.1237 5.47667C12.8728 5.21216 12.7439 5.21894 12.4523 5.51058C12.1539 5.80222 11.9708 6.37872 12.0318 6.81278C12.1539 7.70804 12.9677 8.37949 13.8359 8.30488C14.7515 8.23028 15.3958 7.5317 15.3958 6.62288C15.3958 5.70049 14.6837 4.94087 13.8223 4.93409C13.5646 4.93409 13.4832 4.968 13.3747 5.10365ZM14.0936 5.21894C14.5277 5.32746 15.0024 5.80222 15.1109 6.24307C15.3415 7.1519 14.6565 8.05394 13.7409 8.05394C12.5744 8.04716 11.9029 6.83313 12.5201 5.83613C12.7575 5.44954 12.866 5.40885 12.961 5.65301C13.0152 5.809 13.0017 5.89717 12.8931 6.12777C12.5472 6.81278 12.9135 7.50457 13.646 7.56562C14.0733 7.59953 14.4056 7.41641 14.6023 7.0366C14.8804 6.49401 14.4666 5.71405 13.8766 5.66658C13.7409 5.65301 13.6392 5.58519 13.5578 5.44954C13.3611 5.12399 13.4968 5.06973 14.0936 5.21894Z" fill="#535353"/>
</svg>
